<svg xmlns="http://www.w3.org/2000/svg" viewBox="0 0 400 500" style="background: transparent;">
  <!-- Abraham - El padre de la fe -->
  
  <!-- Cielo y fondo -->
  <defs>
    <linearGradient id="skyGrad" x1="0%" y1="0%" x2="0%" y2="100%">
      <stop offset="0%" style="stop-color:#87CEEB;stop-opacity:1" />
      <stop offset="100%" style="stop-color:#E0F6FF;stop-opacity:1" />
    </linearGradient>
  </defs>
  
  <rect width="400" height="500" fill="url(#skyGrad)"/>
  
  <!-- Montañas al fondo -->
  <polygon points="0,350 100,280 200,320 300,260 400,300 400,500 0,500" fill="#8FBC8F" stroke="none"/>
  
  <!-- Suelo -->
  <ellipse cx="200" cy="480" rx="180" ry="20" fill="#DEB887" opacity="0.6"/>
  
  <!-- Abraham -->
  <!-- Túnica -->
  <ellipse cx="200" cy="380" rx="45" ry="80" fill="#8B4513" stroke="#654321" stroke-width="2"/>
  
  <!-- Brazos -->
  <ellipse cx="160" cy="340" rx="12" ry="35" fill="#DEB887" stroke="#CD853F" stroke-width="1.5"/>
  <ellipse cx="240" cy="340" rx="12" ry="35" fill="#DEB887" stroke="#CD853F" stroke-width="1.5"/>
  
  <!-- Manos -->
  <circle cx="155" cy="370" r="8" fill="#DEB887" stroke="#CD853F" stroke-width="1"/>
  <circle cx="245" cy="370" r="8" fill="#DEB887" stroke="#CD853F" stroke-width="1"/>
  
  <!-- Cabeza -->
  <circle cx="200" cy="280" r="30" fill="#DEB887" stroke="#CD853F" stroke-width="2"/>
  
  <!-- Barba -->
  <ellipse cx="200" cy="300" rx="18" ry="25" fill="#F5F5DC" stroke="#E6E6FA" stroke-width="1.5"/>
  
  <!-- Ojos -->
  <circle cx="190" cy="275" r="3" fill="#4169E1"/>
  <circle cx="210" cy="275" r="3" fill="#4169E1"/>
  <circle cx="190" cy="275" r="1.5" fill="#000"/>
  <circle cx="210" cy="275" r="1.5" fill="#000"/>
  
  <!-- Nariz -->
  <ellipse cx="200" cy="285" rx="2" ry="4" fill="#CD853F"/>
  
  <!-- Sonrisa -->
  <path d="M 192 292 Q 200 298 208 292" stroke="#8B4513" stroke-width="2" fill="none"/>
  
  <!-- Cabello y turbante -->
  <ellipse cx="200" cy="260" rx="32" ry="20" fill="#F5F5DC" stroke="#E6E6FA" stroke-width="1.5"/>
  <ellipse cx="200" cy="250" rx="35" ry="15" fill="#4682B4" stroke="#36648B" stroke-width="2"/>
  
  <!-- Bastón de pastor -->
  <line x1="245" y1="370" x2="245" y2="450" stroke="#8B4513" stroke-width="4"/>
  <path d="M 245 370 Q 255 365 260 375 Q 255 385 245 380" fill="none" stroke="#8B4513" stroke-width="4"/>
  
  <!-- Pies -->
  <ellipse cx="180" cy="460" rx="15" ry="8" fill="#8B4513" stroke="#654321" stroke-width="1.5"/>
  <ellipse cx="220" cy="460" rx="15" ry="8" fill="#8B4513" stroke="#654321" stroke-width="1.5"/>
  
  <!-- Estrellas en el cielo (promesa de Dios) -->
  <g fill="#FFD700" stroke="#FFA500" stroke-width="1">
    <polygon points="80,80 82,88 90,88 84,93 86,101 80,96 74,101 76,93 70,88 78,88" />
    <polygon points="320,60 322,68 330,68 324,73 326,81 320,76 314,81 316,73 310,68 318,68" />
    <polygon points="150,50 152,58 160,58 154,63 156,71 150,66 144,71 146,63 140,58 148,58" />
    <polygon points="350,120 352,128 360,128 354,133 356,141 350,136 344,141 346,133 340,128 348,128" />
  </g>
  
  <!-- Tienda al fondo -->
  <polygon points="50,380 120,350 190,380 50,420" fill="#8B7355" stroke="#654321" stroke-width="2"/>
  <polygon points="50,380 120,350 120,420 50,420" fill="#A0522D" stroke="#654321" stroke-width="2"/>
  
  <!-- Altar de piedras -->
  <ellipse cx="320" cy="420" rx="25" ry="15" fill="#696969" stroke="#2F4F4F" stroke-width="2"/>
  <ellipse cx="315" cy="410" rx="8" ry="6" fill="#808080" stroke="#2F4F4F" stroke-width="1"/>
  <ellipse cx="325" cy="408" rx="6" ry="5" fill="#808080" stroke="#2F4F4F" stroke-width="1"/>
  <ellipse cx="320" cy="405" rx="7" ry="5" fill="#808080" stroke="#2F4F4F" stroke-width="1"/>
  
  <!-- Fuego del altar -->
  <path d="M 315 405 Q 320 395 325 405 Q 322 400 320 395 Q 318 400 315 405" fill="#FF6347" stroke="#FF4500" stroke-width="1"/>
  <path d="M 318 400 Q 320 390 322 400" fill="#FFD700" stroke="#FFA500" stroke-width="1"/>
</svg>