<?xml version="1.0" encoding="UTF-8"?>
<svg xmlns="http://www.w3.org/2000/svg" viewBox="0 0 400 600" width="400" height="600">
  <!-- Fondo del jardín -->
  <rect width="400" height="600" fill="#e8f5e8"/>
  
  <!-- Árbol del conocimiento -->
  <ellipse cx="200" cy="120" rx="80" ry="60" fill="#4a7c59"/>
  <rect x="190" y="180" width="20" height="80" fill="#8b4513"/>
  
  <!-- Frutos del árbol -->
  <circle cx="160" cy="100" r="8" fill="#ff6b6b"/>
  <circle cx="240" cy="110" r="8" fill="#ff6b6b"/>
  <circle cx="200" cy="90" r="8" fill="#ff6b6b"/>
  
  <!-- Adán -->
  <g id="adam">
    <!-- Cuerpo -->
    <ellipse cx="150" cy="400" rx="25" ry="60" fill="#fdbcb4"/>
    <!-- Cabeza -->
    <circle cx="150" cy="320" r="30" fill="#fdbcb4"/>
    <!-- Cabello -->
    <path d="M 125 305 Q 150 290 175 305 Q 175 320 150 325 Q 125 320 125 305" fill="#8b4513"/>
    <!-- Ojos -->
    <circle cx="142" cy="315" r="3" fill="#333"/>
    <circle cx="158" cy="315" r="3" fill="#333"/>
    <!-- Sonrisa -->
    <path d="M 140 325 Q 150 330 160 325" stroke="#333" stroke-width="2" fill="none"/>
    <!-- Brazos -->
    <ellipse cx="120" cy="380" rx="12" ry="35" fill="#fdbcb4"/>
    <ellipse cx="180" cy="380" rx="12" ry="35" fill="#fdbcb4"/>
    <!-- Piernas -->
    <ellipse cx="135" cy="480" rx="12" ry="40" fill="#fdbcb4"/>
    <ellipse cx="165" cy="480" rx="12" ry="40" fill="#fdbcb4"/>
    <!-- Vestimenta de hojas -->
    <ellipse cx="150" cy="420" rx="20" ry="15" fill="#228b22"/>
  </g>
  
  <!-- Eva -->
  <g id="eva">
    <!-- Cuerpo -->
    <ellipse cx="250" cy="400" rx="25" ry="60" fill="#fdbcb4"/>
    <!-- Cabeza -->
    <circle cx="250" cy="320" r="30" fill="#fdbcb4"/>
    <!-- Cabello largo -->
    <path d="M 225 305 Q 250 290 275 305 Q 275 340 250 345 Q 225 340 225 305" fill="#daa520"/>
    <!-- Ojos -->
    <circle cx="242" cy="315" r="3" fill="#333"/>
    <circle cx="258" cy="315" r="3" fill="#333"/>
    <!-- Sonrisa -->
    <path d="M 240 325 Q 250 330 260 325" stroke="#333" stroke-width="2" fill="none"/>
    <!-- Brazos -->
    <ellipse cx="220" cy="380" rx="12" ry="35" fill="#fdbcb4"/>
    <ellipse cx="280" cy="380" rx="12" ry="35" fill="#fdbcb4"/>
    <!-- Piernas -->
    <ellipse cx="235" cy="480" rx="12" ry="40" fill="#fdbcb4"/>
    <ellipse cx="265" cy="480" rx="12" ry="40" fill="#fdbcb4"/>
    <!-- Vestimenta de hojas -->
    <ellipse cx="250" cy="420" rx="20" ry="15" fill="#228b22"/>
    <!-- Fruto en la mano -->
    <circle cx="285" cy="370" r="6" fill="#ff6b6b"/>
  </g>
  
  <!-- Serpiente discreta -->
  <path d="M 300 250 Q 320 260 310 280 Q 300 300 320 310" stroke="#4a4a4a" stroke-width="4" fill="none"/>
  <circle cx="325" cy="315" r="3" fill="#4a4a4a"/>
  
  <!-- Flores del jardín -->
  <g fill="#ff69b4">
    <circle cx="80" cy="520" r="5"/>
    <circle cx="75" cy="515" r="3"/>
    <circle cx="85" cy="515" r="3"/>
    <circle cx="75" cy="525" r="3"/>
    <circle cx="85" cy="525" r="3"/>
  </g>
  
  <g fill="#ffb347">
    <circle cx="320" cy="500" r="5"/>
    <circle cx="315" cy="495" r="3"/>
    <circle cx="325" cy="495" r="3"/>
    <circle cx="315" cy="505" r="3"/>
    <circle cx="325" cy="505" r="3"/>
  </g>
  
  <!-- Hierba -->
  <g stroke="#32cd32" stroke-width="2" fill="none">
    <path d="M 50 550 Q 55 540 60 550"/>
    <path d="M 100 560 Q 105 550 110 560"/>
    <path d="M 290 570 Q 295 560 300 570"/>
    <path d="M 340 550 Q 345 540 350 550"/>
  </g>
</svg>