<svg xmlns="http://www.w3.org/2000/svg" viewBox="0 0 400 500" style="background: white;">
  <!-- Fondo con cielo nocturno -->
  <rect width="400" height="500" fill="#1a1a2e"/>
  
  <!-- Estrellas -->
  <circle cx="50" cy="50" r="2" fill="#fff"/>
  <circle cx="120" cy="30" r="1.5" fill="#fff"/>
  <circle cx="200" cy="40" r="2" fill="#fff"/>
  <circle cx="280" cy="60" r="1.5" fill="#fff"/>
  <circle cx="350" cy="35" r="2" fill="#fff"/>
  <circle cx="80" cy="80" r="1" fill="#fff"/>
  <circle cx="320" cy="90" r="1" fill="#fff"/>
  <circle cx="150" cy="70" r="1.5" fill="#fff"/>
  <circle cx="250" cy="80" r="1" fill="#fff"/>
  
  <!-- Luna -->
  <circle cx="350" cy="80" r="15" fill="#f0f0f0"/>
  <circle cx="355" cy="75" r="12" fill="#1a1a2e"/>
  
  <!-- Montañas al fondo -->
  <path d="M0 350 L100 280 L200 320 L300 260 L400 300 L400 500 L0 500 Z" fill="#2c2c54"/>
  
  <!-- Suelo rocoso -->
  <rect x="0" y="400" width="400" height="100" fill="#3c3c3c"/>
  <ellipse cx="100" cy="420" rx="20" ry="8" fill="#555"/>
  <ellipse cx="300" cy="430" rx="25" ry="10" fill="#555"/>
  
  <!-- Jacob - Cuerpo -->
  <ellipse cx="180" cy="320" rx="35" ry="60" fill="#8b4513"/>
  
  <!-- Jacob - Túnica (desgarrada por la lucha) -->
  <rect x="150" y="280" width="60" height="80" rx="10" fill="#654321"/>
  <rect x="155" y="285" width="50" height="70" rx="8" fill="#8b6914"/>
  
  <!-- Jacob - Cinturón -->
  <rect x="150" y="315" width="60" height="8" fill="#4a4a4a"/>
  
  <!-- Jacob - Brazo izquierdo (luchando) -->
  <ellipse cx="135" cy="300" rx="12" ry="25" fill="#deb887" transform="rotate(-20 135 300)"/>
  <circle cx="125" cy="285" r="8" fill="#deb887"/>
  
  <!-- Jacob - Brazo derecho (agarrando al ángel) -->
  <ellipse cx="225" cy="300" rx="12" ry="25" fill="#deb887" transform="rotate(30 225 300)"/>
  <circle cx="240" cy="290" r="8" fill="#deb887"/>
  
  <!-- Jacob - Piernas (en posición de lucha) -->
  <rect x="165" y="360" width="12" height="40" fill="#deb887" transform="rotate(-10 171 380)"/>
  <rect x="183" y="360" width="12" height="40" fill="#deb887" transform="rotate(15 189 380)"/>
  
  <!-- Jacob - Pies -->
  <ellipse cx="168" cy="405" rx="10" ry="6" fill="#8b4513" transform="rotate(-10 168 405)"/>
  <ellipse cx="195" cy="410" rx="10" ry="6" fill="#8b4513" transform="rotate(15 195 410)"/>
  
  <!-- Jacob - Cabeza -->
  <circle cx="180" cy="250" r="25" fill="#deb887"/>
  
  <!-- Jacob - Cabello (despeinado por la lucha) -->
  <path d="M155 235 Q180 220 205 235 Q200 245 180 250 Q160 245 155 235" fill="#654321"/>
  <path d="M155 240 Q165 225 175 240" fill="#654321"/>
  <path d="M185 240 Q195 225 205 240" fill="#654321"/>
  
  <!-- Jacob - Ojos (determinados) -->
  <circle cx="172" cy="245" r="3" fill="#333"/>
  <circle cx="188" cy="245" r="3" fill="#333"/>
  <circle cx="173" cy="244" r="1" fill="white"/>
  <circle cx="189" cy="244" r="1" fill="white"/>
  
  <!-- Jacob - Nariz -->
  <ellipse cx="180" cy="250" rx="2" ry="3" fill="#cd853f"/>
  
  <!-- Jacob - Boca (esforzándose) -->
  <path d="M175 255 Q180 258 185 255" stroke="#8b4513" stroke-width="2" fill="none"/>
  
  <!-- Ángel - Cuerpo (más etéreo) -->
  <ellipse cx="250" cy="300" rx="30" ry="55" fill="#f0f8ff" opacity="0.9"/>
  
  <!-- Ángel - Túnica brillante -->
  <rect x="225" y="265" width="50" height="70" rx="10" fill="#ffffff" opacity="0.8"/>
  <rect x="230" y="270" width="40" height="60" rx="8" fill="#f8f8ff"/>
  
  <!-- Ángel - Brazos (luchando con Jacob) -->
  <ellipse cx="210" cy="285" rx="10" ry="20" fill="#f0f8ff" transform="rotate(-30 210 285)"/>
  <circle cx="200" cy="275" r="6" fill="#f0f8ff"/>
  
  <ellipse cx="290" cy="285" rx="10" ry="20" fill="#f0f8ff" transform="rotate(20 290 285)"/>
  <circle cx="300" cy="275" r="6" fill="#f0f8ff"/>
  
  <!-- Ángel - Piernas -->
  <rect x="235" y="335" width="10" height="35" fill="#f0f8ff"/>
  <rect x="250" y="335" width="10" height="35" fill="#f0f8ff"/>
  
  <!-- Ángel - Pies (flotando ligeramente) -->
  <ellipse cx="240" cy="375" rx="8" ry="5" fill="#ffffff"/>
  <ellipse cx="255" cy="375" rx="8" ry="5" fill="#ffffff"/>
  
  <!-- Ángel - Cabeza -->
  <circle cx="250" cy="235" r="20" fill="#f0f8ff"/>
  
  <!-- Ángel - Cabello (luminoso) -->
  <path d="M230 220 Q250 210 270 220 Q265 230 250 235 Q235 230 230 220" fill="#ffffff" opacity="0.9"/>
  
  <!-- Ángel - Ojos (serenos pero firmes) -->
  <circle cx="244" cy="230" r="2" fill="#4682b4"/>
  <circle cx="256" cy="230" r="2" fill="#4682b4"/>
  <circle cx="245" cy="229" r="0.5" fill="white"/>
  <circle cx="257" cy="229" r="0.5" fill="white"/>
  
  <!-- Ángel - Nariz -->
  <ellipse cx="250" cy="235" rx="1.5" ry="2" fill="#e6e6fa"/>
  
  <!-- Ángel - Boca (serena) -->
  <path d="M247 240 Q250 242 253 240" stroke="#b0b0b0" stroke-width="1" fill="none"/>
  
  <!-- Alas del ángel (parcialmente visibles) -->
  <path d="M220 260 Q200 250 190 270 Q200 280 220 275 Q230 270 225 265" fill="#ffffff" opacity="0.7"/>
  <path d="M280 260 Q300 250 310 270 Q300 280 280 275 Q270 270 275 265" fill="#ffffff" opacity="0.7"/>
  
  <!-- Plumas de las alas -->
  <path d="M195 265 Q200 260 205 265" stroke="#e6e6fa" stroke-width="1" fill="none"/>
  <path d="M200 270 Q205 265 210 270" stroke="#e6e6fa" stroke-width="1" fill="none"/>
  <path d="M295 265 Q300 260 305 265" stroke="#e6e6fa" stroke-width="1" fill="none"/>
  <path d="M290 270 Q295 265 300 270" stroke="#e6e6fa" stroke-width="1" fill="none"/>
  
  <!-- Resplandor divino alrededor del ángel -->
  <circle cx="250" cy="300" r="80" fill="none" stroke="#ffd700" stroke-width="2" opacity="0.3"/>
  <circle cx="250" cy="300" r="90" fill="none" stroke="#ffffff" stroke-width="1" opacity="0.2"/>
  
  <!-- Río Jaboc al fondo -->
  <path d="M0 380 Q100 370 200 375 Q300 380 400 375 L400 390 Q300 395 200 390 Q100 385 0 395 Z" fill="#4682b4" opacity="0.6"/>
  
  <!-- Reflexión de la luna en el agua -->
  <ellipse cx="350" cy="385" rx="8" ry="3" fill="#f0f0f0" opacity="0.5"/>
  
  <!-- Contornos principales -->
  <g stroke="#333" stroke-width="1.5" fill="none">
    <!-- Contorno de Jacob -->
    <circle cx="180" cy="250" r="25"/>
    <rect x="150" y="280" width="60" height="80" rx="10"/>
  </g>
  
  <g stroke="#666" stroke-width="1" fill="none" opacity="0.8">
    <!-- Contorno del ángel (más sutil) -->
    <circle cx="250" cy="235" r="20"/>
    <rect x="225" y="265" width="50" height="70" rx="10"/>
  </g>
</svg>