<svg xmlns="http://www.w3.org/2000/svg" viewBox="0 0 400 533" width="400" height="533">
  <!-- Fondo con colinas suaves -->
  <defs>
    <linearGradient id="skyGradient" x1="0%" y1="0%" x2="0%" y2="100%">
      <stop offset="0%" style="stop-color:#E6F3FF;stop-opacity:1" />
      <stop offset="100%" style="stop-color:#B8E0FF;stop-opacity:1" />
    </linearGradient>
  </defs>
  
  <!-- Cielo -->
  <rect width="400" height="533" fill="url(#skyGradient)"/>
  
  <!-- Colinas de fondo -->
  <path d="M0,350 Q100,320 200,340 T400,330 L400,533 L0,533 Z" fill="#C8E6C9"/>
  <path d="M0,380 Q150,360 300,370 T400,365 L400,533 L0,533 Z" fill="#A5D6A7"/>
  
  <!-- Templo/Tabernáculo en el fondo -->
  <rect x="280" y="300" width="80" height="50" fill="#D7CCC8" stroke="#8D6E63" stroke-width="2"/>
  <polygon points="280,300 320,270 360,300" fill="#8D6E63"/>
  <rect x="310" y="320" width="20" height="30" fill="#5D4037"/>
  
  <!-- Samuel como joven profeta -->
  <!-- Cabeza -->
  <circle cx="200" cy="180" r="35" fill="#FFDBCB" stroke="#333" stroke-width="2"/>
  
  <!-- Cabello -->
  <path d="M165,160 Q200,140 235,160 Q240,180 235,200 Q200,190 165,200 Q160,180 165,160" fill="#8D6E63" stroke="#333" stroke-width="1.5"/>
  
  <!-- Ojos -->
  <circle cx="190" cy="175" r="3" fill="#333"/>
  <circle cx="210" cy="175" r="3" fill="#333"/>
  <circle cx="190" cy="174" r="1" fill="white"/>
  <circle cx="210" cy="174" r="1" fill="white"/>
  
  <!-- Nariz -->
  <path d="M200,180 L198,185 L202,185" fill="none" stroke="#333" stroke-width="1"/>
  
  <!-- Boca -->
  <path d="M195,190 Q200,193 205,190" fill="none" stroke="#333" stroke-width="1.5"/>
  
  <!-- Túnica de profeta -->
  <path d="M200,215 L170,220 L165,280 L160,350 L155,420 L160,480 L180,485 L220,485 L240,480 L245,420 L240,350 L235,280 L230,220 Z" fill="#5C6BC0" stroke="#333" stroke-width="2"/>
  
  <!-- Cinturón -->
  <rect x="170" y="280" width="60" height="8" fill="#8D6E63" stroke="#333" stroke-width="1"/>
  
  <!-- Brazos -->
  <ellipse cx="150" cy="260" rx="15" ry="40" fill="#5C6BC0" stroke="#333" stroke-width="2"/>
  <ellipse cx="250" cy="260" rx="15" ry="40" fill="#5C6BC0" stroke="#333" stroke-width="2"/>
  
  <!-- Manos -->
  <circle cx="145" cy="300" r="12" fill="#FFDBCB" stroke="#333" stroke-width="2"/>
  <circle cx="255" cy="300" r="12" fill="#FFDBCB" stroke="#333" stroke-width="2"/>
  
  <!-- Pergamino/Rollo en la mano izquierda -->
  <rect x="130" y="290" width="25" height="8" fill="#FFF8E1" stroke="#333" stroke-width="1.5" rx="2"/>
  <line x1="135" y1="292" x2="135" y2="296" stroke="#333" stroke-width="0.5"/>
  <line x1="140" y1="292" x2="140" y2="296" stroke="#333" stroke-width="0.5"/>
  <line x1="145" y1="292" x2="145" y2="296" stroke="#333" stroke-width="0.5"/>
  
  <!-- Bastón de autoridad en la mano derecha -->
  <line x1="255" y1="300" x2="255" y2="400" stroke="#8D6E63" stroke-width="4"/>
  <circle cx="255" cy="295" r="5" fill="#FFD54F" stroke="#333" stroke-width="1"/>
  
  <!-- Pies con sandalias -->
  <ellipse cx="180" cy="485" rx="15" ry="8" fill="#8D6E63" stroke="#333" stroke-width="2"/>
  <ellipse cx="220" cy="485" rx="15" ry="8" fill="#8D6E63" stroke="#333" stroke-width="2"/>
  
  <!-- Lámpara del templo (símbolo de su llamado) -->
  <rect x="80" y="320" width="30" height="15" fill="#FFD54F" stroke="#333" stroke-width="2" rx="3"/>
  <rect x="92" y="315" width="6" height="10" fill="#8D6E63" stroke="#333" stroke-width="1"/>
  <path d="M95,310 L93,305 L97,305 Z" fill="#FF6F00"/>
  
  <!-- Flores del campo -->
  <circle cx="50" cy="420" r="4" fill="#E1BEE7"/>
  <circle cx="45" cy="415" r="3" fill="#CE93D8"/>
  <circle cx="55" cy="415" r="3" fill="#CE93D8"/>
  <line x1="50" y1="424" x2="50" y2="440" stroke="#4CAF50" stroke-width="2"/>
  
  <circle cx="320" cy="400" r="4" fill="#FFCDD2"/>
  <circle cx="315" cy="395" r="3" fill="#F8BBD9"/>
  <circle cx="325" cy="395" r="3" fill="#F8BBD9"/>
  <line x1="320" y1="404" x2="320" y2="420" stroke="#4CAF50" stroke-width="2"/>
  
  <!-- Piedras del suelo -->
  <ellipse cx="100" cy="460" rx="8" ry="5" fill="#BCAAA4"/>
  <ellipse cx="300" cy="470" rx="6" ry="4" fill="#A1887F"/>
  <ellipse cx="130" cy="480" rx="5" ry="3" fill="#8D6E63"/>
</svg>